<?xml version="1.0" encoding="utf-8"?>
<!-- Generator: Adobe Illustrator 24.0.0, SVG Export Plug-In . SVG Version: 6.00 Build 0)  -->
<svg version="1.1" id="Layer_1" xmlns="http://www.w3.org/2000/svg" xmlns:xlink="http://www.w3.org/1999/xlink" x="0px" y="0px"
	 viewBox="0 0 512 459.5" style="enable-background:new 0 0 512 459.5;" xml:space="preserve">
<style type="text/css">
	.st0{fill:#005CB9;}
	.st1{fill:#6ABF4B;}
</style>
<g>
	<g>
		<path class="st0" d="M479.2,65.6H32.8C14.7,65.6,0,51,0,32.8S14.7,0,32.8,0h446.4C497.3,0,512,14.7,512,32.8
			S497.3,65.6,479.2,65.6z"/>
		<path class="st0" d="M295.4,262.6H32.8C14.7,262.6,0,247.9,0,229.7s14.7-32.8,32.8-32.8h262.6c18.1,0,32.8,14.7,32.8,32.8
			S313.5,262.6,295.4,262.6z"/>
	</g>
	<path class="st1" d="M479.2,262.6h-52.5c-18.1,0-32.8-14.7-32.8-32.8s14.7-32.8,32.8-32.8h52.5c18.1,0,32.8,14.7,32.8,32.8
		S497.3,262.6,479.2,262.6z"/>
	<path class="st0" d="M479.2,459.5H32.8C14.7,459.5,0,444.8,0,426.7s14.7-32.8,32.8-32.8h446.4c18.1,0,32.8,14.7,32.8,32.8
		C512,444.8,497.3,459.5,479.2,459.5z"/>
</g>
</svg>
